<svg xmlns="http://www.w3.org/2000/svg" width="256" height="256" viewBox="0 0 256 256"><path fill="#dd7b18" d="M209 141.1c-10.5-16-4.9-27.1 1.4-36.2s13.2-6.9 12.5-14.6-33.4-2.8-33.4 25.7 10.4 23.7 22.9 58.5-27.8 29.2-27.8 29.2c0-36.9-9.7-50.1-20.9-75.1s-55.3-31.7-60.1-40S86.9 76 89 72.6s-.7-25.1-.7-25.1c2.8-4.8-1.4-32-1.4-32C82 18.3 68.1 35 68.1 35c-8.7-5.9-21.2-1-21.2-1-1.4-5.6-17.4-21.6-17.4-21.6-5.6 21.6.7 33.4.7 33.4s-2.1-3.5-2.8 16.7 7.7 11.8 5.6 34.1 2.7 29.9 16.7 57-3.5 66.8-3.5 66.8-12.5 2.1-13.2 10.4 18.1 5.6 18.1 5.6c19.4 18.1 33.3-3.5 33.3-3.5.7 4.2 14.7 4.2 14.7 4.2s9.7 11.1 39.6 2.1 36.9-7 36.9-7c32.7 1.4 45.9-18.8 52.8-38.2 4.2-20.9-9-36.9-19.4-52.9zm-107.8-27.9c-2.6 11.9-18.9 23.4-18.9 23.4h-.2s-16.4-11.5-19-23.4 16.8-16.8 19-4h.2c2.2-12.8 21.6-8 18.9 4z"/></svg>