<svg xmlns="http://www.w3.org/2000/svg" width="512" height="256" viewBox="0 0 512 256"><path fill="#e6e7e8" d="M185.9 141.1c-10.5-16-4.9-27.1 1.4-36.2s13.2-6.9 12.5-14.6-33.4-2.8-33.4 25.7 10.4 23.7 22.9 58.5-27.8 29.2-27.8 29.2c0-36.9-9.7-50.1-20.8-75.1s-55.3-31.7-60.2-40-16.7-12.6-14.6-16-.7-25.1-.7-25.1c2.8-4.8-1.4-32-1.4-32C58.9 18.3 45 35 45 35c-8.7-5.9-21.2-1-21.2-1-1.4-5.6-17.4-21.6-17.4-21.6-5.6 21.6.7 33.4.7 33.4S5 42.3 4.3 62.5 12 74.3 9.9 96.6s2.8 29.9 16.7 57-3.5 66.8-3.5 66.8-12.5 2.1-13.2 10.4 18.1 5.6 18.1 5.6c19.4 18.1 33.4-3.5 33.4-3.5.6 4.2 14.6 4.2 14.6 4.2s9.7 11.1 39.6 2.1 36.9-7 36.9-7c32.7 1.4 45.9-18.8 52.8-38.2 4.2-20.9-9-36.9-19.4-52.9zM78.1 113.2c-2.6 11.9-18.9 23.4-18.9 23.4H59s-16.4-11.5-19-23.4 16.8-16.8 19-4h.2c2.2-12.8 21.6-8 18.9 4zm201.4-84.1l-1.8 8.6-.9.4a18 18 0 0 0-5-2.5 18.8 18.8 0 0 0-5.7-.9c-8.1 0-12.2 5.3-12.2 16 0 5.8 1.1 10.1 3.2 13s5.2 4.3 9.3 4.3a21.2 21.2 0 0 0 5.9-.9 22.1 22.1 0 0 0 5.4-2.4l1 .5-.9 8.8a28.9 28.9 0 0 1-12.2 2.7c-7.4 0-13-2.1-16.9-6.4s-5.8-10.5-5.8-18.5 2.1-14.5 6.2-19 9.9-6.7 17.4-6.7a27.7 27.7 0 0 1 13 3zm28.8 13.3a8.6 8.6 0 0 1 3.4 7.4c0 .9-.2 3.8-.5 8.7 0 1.4-.1 2.9-.2 4.4s-.2 2.8-.2 3.9a4 4 0 0 0 .4 1.8 1.8 1.8 0 0 0 1.4.5l2-.3.8.6-1 5.3a13 13 0 0 1-5.6 2A6.4 6.4 0 0 1 305 75a7.7 7.7 0 0 1-2.1-3.9h-.5a21 21 0 0 1-7.9 5.6c-3.7 0-6.5-1-8.6-2.9a10 10 0 0 1-3.2-7.7 8.5 8.5 0 0 1 2-6 10.1 10.1 0 0 1 5.9-3l11.7-2.2v-3.1c0-3.4-1.6-5-4.9-5a13.5 13.5 0 0 0-5 1 37.9 37.9 0 0 0-5.9 3.4l-.8-.4-1.1-6.8a27.1 27.1 0 0 1 14.5-4.3c3.9 0 7 .9 9.2 2.7zm-14.2 19.4a3.2 3.2 0 0 0-1.8 1 3.4 3.4 0 0 0-.5 2.2 4.3 4.3 0 0 0 1 3.1 3.7 3.7 0 0 0 3 1.1c2 0 4.1-1.2 6.3-3.5l.2-5.7zm47.4 5.4l.8.8-1 6a21.4 21.4 0 0 1-7.9 2.5c-6.9-.7-10.4-4.1-10.4-10.1l.4-6.4V46.8h-4.7l-.4-.5.5-5.6h4.5v-5.9l9.3-3 .7.6-.2 8.3h9.1l.3.6-.5 5.5h-9.1l-.5 17.2a5.4 5.4 0 0 0 .9 3.5 3.8 3.8 0 0 0 3 1 11.4 11.4 0 0 0 5.2-1.3zm-56.9 82l-.2 1.2a39.2 39.2 0 0 1-10.2 2l-1.1-.8c-3.6-6.3-6.6-11.9-8.9-16.6h-7.5v1l.5 15.7h-10.4l.5-14.7-.5-34.7h18.9c5.2 0 9.1 1.3 12 3.8s4.2 6.2 4.2 10.9a16.8 16.8 0 0 1-2.4 8.7 19 19 0 0 1-6.8 6.4 197 197 0 0 0 11.9 17.1zM256.9 127l7.6.3c4.3-1.5 6.5-4.6 6.5-9.4 0-2.6-.7-4.6-2.1-5.9s-3.6-2-6.5-2.1l-5.2.3zm58.8 8.1l-20.6.2c.4 6.4 3.7 9.5 9.7 9.5a25.6 25.6 0 0 0 10.6-2.6l.8.5-1.5 7.6a32.8 32.8 0 0 1-11 2.1c-5.6 0-10-1.6-13.2-4.9s-4.8-7.8-4.8-13.5 1.6-10.3 4.7-13.6 7.3-5.1 12.6-5.1 8.1 1.3 10.6 3.8 3.7 5.9 3.7 10.3c0 1.2-.2 2.7-.4 4.5zm-7.3-6.8a6.8 6.8 0 0 0-1.4-4.6 5 5 0 0 0-4.1-1.6 6.7 6.7 0 0 0-4.9 1.9 9.6 9.6 0 0 0-2.7 5.7l12.9-.3zm37.7-11.1l-1.4 7.5-1.2.4a18.7 18.7 0 0 0-4.5-2.2 10.4 10.4 0 0 0-3.9-.8 4.4 4.4 0 0 0-2.9.9 3.4 3.4 0 0 0-1.1 2.4 3 3 0 0 0 1.5 2.6 19.6 19.6 0 0 0 4.4 2.2 30.9 30.9 0 0 1 5.1 2.4 10.3 10.3 0 0 1 3.4 3.2 8 8 0 0 1 1.4 5 11.6 11.6 0 0 1-1.5 5.7 11.9 11.9 0 0 1-4.8 4.3 17.4 17.4 0 0 1-7.9 1.6 29.7 29.7 0 0 1-11.4-2.3l1.1-7.9 1-.7a17.9 17.9 0 0 0 5.3 3.2 13.4 13.4 0 0 0 5.1 1.2 4.4 4.4 0 0 0 3.2-1 3.2 3.2 0 0 0-.2-5.1 23.5 23.5 0 0 0-4.5-2.2l-5.1-2.5a10.6 10.6 0 0 1-3.5-3.2 9.3 9.3 0 0 1-1.4-5.1 10.2 10.2 0 0 1 3.8-8.2c2.5-2.1 5.9-3.2 10.2-3.2a27 27 0 0 1 9.8 1.8zm27.3-1.4a17.5 17.5 0 0 1 4.4 1.5l-1.7 8.1-.8.4a14.4 14.4 0 0 0-7-2.2 6.4 6.4 0 0 0-5.4 2.5c-1.3 1.7-2 4.1-2 7.3s.7 6.3 2.1 8.1a7 7 0 0 0 5.9 2.9 20.1 20.1 0 0 0 7.7-1.9l.7.6-1 7.9a32.9 32.9 0 0 1-9.4 1.4c-4.9 0-8.7-1.6-11.5-4.8s-4.1-7.6-4.1-13.3 1.5-10.6 4.5-13.9 7.2-5.1 12.6-5.1a28.3 28.3 0 0 1 5 .5zm43.9 29.2l-1 5.4a11.4 11.4 0 0 1-5.8 1.9 7.6 7.6 0 0 1-3.7-1.8 8.9 8.9 0 0 1-2.2-4h-.7a20.1 20.1 0 0 1-9 5.6c-3.9 0-6.8-.9-8.9-2.6a9.3 9.3 0 0 1-2.9-7.6v-9.1l-.3-16.1 9.8-.8-.2 22.6a5.8 5.8 0 0 0 1.1 4 4 4 0 0 0 3.4 1.4 9.9 9.9 0 0 0 6.7-3v-24.2l9.7-.8-.7 26.5a3 3 0 0 0 .5 1.8 1.6 1.6 0 0 0 1.3.5l2.1-.3zm33.5-9.9l-20.7.2c.5 6.4 3.7 9.5 9.8 9.5a24.9 24.9 0 0 0 10.5-2.6l.9.5-1.6 7.6a31.8 31.8 0 0 1-10.9 2.1c-5.6 0-10-1.6-13.2-4.9s-4.8-7.8-4.8-13.5 1.5-10.3 4.7-13.6 7.3-5.1 12.6-5.1 8.1 1.3 10.5 3.8 3.8 5.9 3.8 10.3c0 1.2-.2 2.7-.4 4.5zm-7.3-6.8a6.8 6.8 0 0 0-1.4-4.6 5 5 0 0 0-4.1-1.6 6.9 6.9 0 0 0-5 1.9 10.1 10.1 0 0 0-2.6 5.7l12.9-.3zm-156 85.7l.4 15.3h-11.2l-20.1-33.4h-.6v16.4l.3 17h-9.4l.5-14.6-.4-34.8h11l20.1 33.4h.7l-.2-32.9 9.6-.6zm37.3-1.3l-20.7.2c.5 6.4 3.7 9.6 9.7 9.6a25.5 25.5 0 0 0 10.6-2.7l.8.5-1.5 7.6a32.5 32.5 0 0 1-10.9 2.2c-5.7 0-10.1-1.7-13.3-5s-4.8-7.7-4.8-13.5 1.6-10.3 4.7-13.6 7.3-5 12.7-5 8 1.2 10.5 3.7 3.7 5.9 3.7 10.4a27.3 27.3 0 0 1-.4 4.4zm-7.4-6.8c0-2-.4-3.6-1.4-4.6a4.8 4.8 0 0 0-4-1.6 6.9 6.9 0 0 0-5 2 10.5 10.5 0 0 0-2.7 5.6l13-.3zm35.5 14.6l.8.7-1 6.1a23.2 23.2 0 0 1-7.9 2.4c-6.9-.7-10.4-4-10.4-10.1l.4-6.3v-13.2H330l-.4-.5.5-5.6h4.6v-5.9l9.2-3 .7.6-.2 8.3h9.1l.3.5-.4 5.6h-9.2l-.4 17.2a5 5 0 0 0 .9 3.4 3.9 3.9 0 0 0 3.1 1.1 12.8 12.8 0 0 0 5.1-1.3zm12.8-21.5l4.4 20h.6l5.3-19.4 1.3-5.9h9.9l.7 5.3 4.5 19.9h.7l5.2-19.3 1.2-5.9h8.6L397 229.3h-9.6l-5.5-22.9h-.6l-6.4 22.9h-10l-9.3-35.4 9.3-.5zm72.9-1.4c2.7 3 4.1 7.4 4.1 13.2s-1.5 11-4.4 14.3-7.3 5-12.8 5-9.2-1.6-12-4.6-4.1-7.5-4.1-13.3 1.5-11 4.4-14.3 7.2-4.9 12.8-4.9 9.2 1.5 12 4.6zm-18 4.7c-1.1 1.6-1.7 4.3-1.7 7.9s.6 8.1 1.7 10a6.9 6.9 0 0 0 10.9.6c1.1-1.6 1.6-4.2 1.6-7.9s-.6-8-1.7-10a5.8 5.8 0 0 0-5.5-3 6 6 0 0 0-5.3 2.4zm50.2-8.6v9.5l-1.1.3a8.2 8.2 0 0 0-2.8-.5c-2.9 0-5.6 1.9-8 5.8v4.8l.5 15.7h-10.2l.6-14.7-.4-20.3 9.6-.8v7h.7q3.8-6.9 9.3-6.9zm14.4 19.9l.5 15.7h-10.2l.5-14.8-.4-38.2 10.2-.8zm10.3-3.9c2.8 4.5 6.9 10.4 12.4 17.9v1.1a48.5 48.5 0 0 1-5.7.9l-3.7.5-1.1-.5a169 169 0 0 1-11.6-18.9v-.7l8.9-12.7 1.8-3.6h10.7z"/></svg>